<svg xmlns="http://www.w3.org/2000/svg" width="1200" height="800" viewBox="0 0 1200 800" role="img" aria-label="PhotoBrief website intake automation flow"><defs><linearGradient id="bg" x1="0" y1="0" x2="1" y2="1"><stop stop-color="#F8F7FA"/><stop offset="1" stop-color="#ECE8F5"/></linearGradient><linearGradient id="accent" x1="0" y1="0" x2="1" y2="1"><stop stop-color="#7C3AED"/><stop offset="1" stop-color="#A78BFA"/></linearGradient><filter id="shadow" x="-20%" y="-20%" width="140%" height="150%"><feDropShadow dx="0" dy="18" stdDeviation="22" flood-color="#111014" flood-opacity=".14"/></filter></defs><rect width="1200" height="800" rx="48" fill="url(#bg)"/><circle cx="1050" cy="120" r="210" fill="#A78BFA" opacity=".16"/><circle cx="190" cy="720" r="260" fill="#7C3AED" opacity=".10"/><rect x="72" y="96" width="300" height="260" rx="36" fill="#FFFFFF" stroke="#E1DEE7" filter="url(#shadow)"/><text x="108" y="154" font-family="Inter,Arial,sans-serif" font-size="32" font-weight="760" fill="#111014">Website lead</text><text x="108" y="196" font-family="Inter,Arial,sans-serif" font-size="20" fill="#625F68">Get a quote form</text><rect x="108" y="230" width="228" height="46" rx="16" fill="#F1EAFF"/><text x="128" y="260" font-family="Inter,Arial,sans-serif" font-size="19" font-weight="700" fill="#6D28D9">repair</text><path d="M392 226h120" stroke="#7C3AED" stroke-width="8" stroke-linecap="round"/><path d="m500 202 32 24-32 24" fill="none" stroke="#7C3AED" stroke-width="8" stroke-linecap="round" stroke-linejoin="round"/><rect x="540" y="96" width="300" height="260" rx="36" fill="#FFFFFF" stroke="#E1DEE7" filter="url(#shadow)"/><text x="576" y="154" font-family="Inter,Arial,sans-serif" font-size="32" font-weight="760" fill="#111014">Template routing</text><text x="576" y="196" font-family="Inter,Arial,sans-serif" font-size="20" fill="#625F68">Rules + AI fallback</text><rect x="576" y="230" width="228" height="46" rx="16" fill="#F1EAFF"/><text x="596" y="260" font-family="Inter,Arial,sans-serif" font-size="19" font-weight="700" fill="#6D28D9">Repair intake</text><path d="M860 226h120" stroke="#7C3AED" stroke-width="8" stroke-linecap="round"/><path d="m968 202 32 24-32 24" fill="none" stroke="#7C3AED" stroke-width="8" stroke-linecap="round" stroke-linejoin="round"/><rect x="828" y="416" width="300" height="260" rx="36" fill="#FFFFFF" stroke="#E1DEE7" filter="url(#shadow)"/><text x="864" y="474" font-family="Inter,Arial,sans-serif" font-size="32" font-weight="760" fill="#111014">Mobile capture</text><text x="864" y="516" font-family="Inter,Arial,sans-serif" font-size="20" fill="#625F68">Photo by photo</text><rect x="864" y="550" width="228" height="46" rx="16" fill="#E9F8EF"/><text x="884" y="580" font-family="Inter,Arial,sans-serif" font-size="19" font-weight="700" fill="#1C7C4A">Looks good</text><path d="M828 546H704" stroke="#7C3AED" stroke-width="8" stroke-linecap="round"/><path d="m716 522-32 24 32 24" fill="none" stroke="#7C3AED" stroke-width="8" stroke-linecap="round" stroke-linejoin="round"/><rect x="360" y="416" width="300" height="260" rx="36" fill="#FFFFFF" stroke="#E1DEE7" filter="url(#shadow)"/><text x="396" y="474" font-family="Inter,Arial,sans-serif" font-size="32" font-weight="760" fill="#111014">Job-ready brief</text><text x="396" y="516" font-family="Inter,Arial,sans-serif" font-size="20" fill="#625F68">Photos + answers + summary</text><rect x="396" y="550" width="228" height="46" rx="16" fill="#F1EAFF"/><text x="416" y="580" font-family="Inter,Arial,sans-serif" font-size="19" font-weight="700" fill="#6D28D9">Ready to quote</text></svg>
