<svg xmlns="http://www.w3.org/2000/svg" width="1200" height="800" viewBox="0 0 1200 800" role="img" aria-label="PhotoBrief website intake automation flow"><defs><linearGradient id="bg" x1="0" y1="0" x2="1" y2="1"><stop stop-color="#F8FBFF"/><stop offset="1" stop-color="#EAF2FF"/></linearGradient><linearGradient id="blue" x1="0" y1="0" x2="1" y2="1"><stop stop-color="#3A8BFF"/><stop offset="1" stop-color="#005CFF"/></linearGradient></defs><rect width="1200" height="800" rx="48" fill="url(#bg)"/><circle cx="1050" cy="120" r="210" fill="#0B67FF" opacity=".10"/><circle cx="190" cy="720" r="260" fill="#74B4FF" opacity=".12"/><rect x="72" y="96" width="300" height="260" rx="36" fill="#fff" stroke="#DCE8FA"/><text x="108" y="154" font-family="Inter,Arial,sans-serif" font-size="32" font-weight="760" fill="#071A35">Website lead</text><text x="108" y="196" font-family="Inter,Arial,sans-serif" font-size="20" fill="#5D6B82">Get a quote form</text><rect x="108" y="230" width="228" height="46" rx="16" fill="#F1F6FF"/><text x="128" y="260" font-family="Inter,Arial,sans-serif" font-size="19" font-weight="700" fill="#0B67FF">repair</text><path d="M392 226h120" stroke="#0B67FF" stroke-width="8" stroke-linecap="round"/><path d="m500 202 32 24-32 24" fill="none" stroke="#0B67FF" stroke-width="8" stroke-linecap="round" stroke-linejoin="round"/><rect x="540" y="96" width="300" height="260" rx="36" fill="#fff" stroke="#DCE8FA"/><text x="576" y="154" font-family="Inter,Arial,sans-serif" font-size="32" font-weight="760" fill="#071A35">Template routing</text><text x="576" y="196" font-family="Inter,Arial,sans-serif" font-size="20" fill="#5D6B82">Rules + AI fallback</text><rect x="576" y="230" width="228" height="46" rx="16" fill="#F1F6FF"/><text x="596" y="260" font-family="Inter,Arial,sans-serif" font-size="19" font-weight="700" fill="#0B67FF">Repair intake</text><path d="M860 226h120" stroke="#0B67FF" stroke-width="8" stroke-linecap="round"/><path d="m968 202 32 24-32 24" fill="none" stroke="#0B67FF" stroke-width="8" stroke-linecap="round" stroke-linejoin="round"/><rect x="828" y="416" width="300" height="260" rx="36" fill="#fff" stroke="#DCE8FA"/><text x="864" y="474" font-family="Inter,Arial,sans-serif" font-size="32" font-weight="760" fill="#071A35">Mobile capture</text><text x="864" y="516" font-family="Inter,Arial,sans-serif" font-size="20" fill="#5D6B82">Photo by photo</text><rect x="864" y="550" width="228" height="46" rx="16" fill="#E8FFF3"/><text x="884" y="580" font-family="Inter,Arial,sans-serif" font-size="19" font-weight="700" fill="#178A52">Looks good</text><path d="M828 546H704" stroke="#0B67FF" stroke-width="8" stroke-linecap="round"/><path d="m716 522-32 24 32 24" fill="none" stroke="#0B67FF" stroke-width="8" stroke-linecap="round" stroke-linejoin="round"/><rect x="360" y="416" width="300" height="260" rx="36" fill="#fff" stroke="#DCE8FA"/><text x="396" y="474" font-family="Inter,Arial,sans-serif" font-size="32" font-weight="760" fill="#071A35">Job-ready brief</text><text x="396" y="516" font-family="Inter,Arial,sans-serif" font-size="20" fill="#5D6B82">Photos + answers + summary</text><rect x="396" y="550" width="228" height="46" rx="16" fill="#F1F6FF"/><text x="416" y="580" font-family="Inter,Arial,sans-serif" font-size="19" font-weight="700" fill="#0B67FF">Ready to quote</text></svg>