<svg viewBox="0 0 64 64" xmlns="http://www.w3.org/2000/svg" role="img" aria-label="PhotoBrief.ai micro mark">
  <defs>
    <linearGradient id="pb-micro-bg" x1="10" y1="4" x2="54" y2="62" gradientUnits="userSpaceOnUse">
      <stop offset="0" stop-color="#d9bbff"/>
      <stop offset="0.48" stop-color="#a985ff"/>
      <stop offset="1" stop-color="#6f46d9"/>
    </linearGradient>
    <radialGradient id="pb-micro-lens" cx="31" cy="30" r="17" gradientUnits="userSpaceOnUse">
      <stop offset="0" stop-color="#606067"/>
      <stop offset="0.58" stop-color="#2f3034"/>
      <stop offset="1" stop-color="#141519"/>
    </radialGradient>
    <filter id="pb-micro-shadow" x="-20%" y="-20%" width="140%" height="140%">
      <feDropShadow dx="0" dy="2" stdDeviation="2" flood-color="#000" flood-opacity="0.45"/>
    </filter>
  </defs>

  <rect x="3" y="3" width="58" height="58" rx="13" fill="url(#pb-micro-bg)"/>
  <rect x="3" y="3" width="58" height="58" rx="13" fill="none" stroke="#101014" stroke-width="4"/>

  <path d="M6 28.5 24.8 44.5c4.1 3.5 10.3 3.5 14.4 0L58 28.5" fill="none" stroke="#101014" stroke-width="4.2" stroke-linecap="round" stroke-linejoin="round"/>
  <path d="M7 56 24.5 40.6" fill="none" stroke="#101014" stroke-width="4.2" stroke-linecap="round"/>
  <path d="M57 56 39.5 40.6" fill="none" stroke="#101014" stroke-width="4.2" stroke-linecap="round"/>

  <g filter="url(#pb-micro-shadow)">
    <circle cx="32" cy="31" r="17" fill="#111216"/>
    <circle cx="32" cy="31" r="14.2" fill="url(#pb-micro-lens)" stroke="#aaaab0" stroke-width="1.2"/>
    <path d="M32 17.5 40.4 31.6 34.8 44.1 25.4 43.2 20.2 34.8 23.8 23.5Z" fill="#1b1c20" opacity="0.9"/>
    <path d="M32 17.5 27.5 28.4H18.7M40.4 31.6H51.1M34.8 44.1 42.6 51.1M25.4 43.2 15.2 44.7M20.2 34.8 13.7 27.2M23.8 23.5 29.8 13.8" fill="none" stroke="#d7d7dc" stroke-width="1.2" stroke-linecap="round" opacity="0.72"/>
    <circle cx="32" cy="31" r="5.2" fill="#0f1014" stroke="#454751" stroke-width="1"/>
    <circle cx="30.6" cy="29.5" r="1.8" fill="#f2e9ff" opacity="0.7"/>
  </g>
</svg>
