<svg xmlns="http://www.w3.org/2000/svg" width="900" height="900" viewBox="0 0 900 900" role="img" aria-label="PhotoBrief"><defs><linearGradient id="body" x1="0" y1="0" x2="1" y2="1"><stop stop-color="#DBEAFF"/><stop offset=".52" stop-color="#6CA7FF"/><stop offset="1" stop-color="#0B5FFF"/></linearGradient><linearGradient id="lens" x1="0" y1="0" x2="1" y2="1"><stop stop-color="#8DBBFF"/><stop offset=".45" stop-color="#1478FF"/><stop offset="1" stop-color="#0032A0"/></linearGradient><filter id="shadow" x="-20%" y="-20%" width="140%" height="150%"><feDropShadow dx="0" dy="18" stdDeviation="20" flood-color="#061326" flood-opacity=".24"/></filter></defs><g transform="translate(246 78) scale(1.22)" filter="url(#shadow)"><path d="M104 82V66c0-22 18-40 40-40h66c22 0 40 18 40 40v16h18c31 0 56 25 56 56v128c0 31-25 56-56 56H56c-31 0-56-25-56-56V138c0-31 25-56 56-56h48Zm38 0h70V68c0-7-5-12-12-12h-46c-7 0-12 5-12 12v14Z" fill="url(#body)"/><path d="M24 190c36 16 89 24 159 24s122-8 157-24" fill="none" stroke="#EAF2FF" stroke-width="5" stroke-linecap="round" opacity=".9"/><circle cx="184" cy="210" r="72" fill="#EAF2FF"/><circle cx="184" cy="210" r="59" fill="#071326"/><circle cx="184" cy="210" r="46" fill="url(#lens)"/><circle cx="166" cy="188" r="12" fill="#fff" opacity=".78"/><circle cx="254" cy="125" r="13" fill="#0C7BFF" stroke="#82B9FF" stroke-width="3"/></g><text x="450" y="660" text-anchor="middle" font-family="Inter, ui-sans-serif, system-ui, -apple-system, BlinkMacSystemFont, Segoe UI, sans-serif" font-size="110" font-weight="760" letter-spacing="-6"><tspan fill="#fff">Photo</tspan><tspan fill="#8DBBFF">Brief</tspan></text></svg>