<svg xmlns="http://www.w3.org/2000/svg" width="512" height="512" viewBox="0 0 400 400" role="img" aria-label="PhotoBrief"><defs><linearGradient id="body" x1="72" y1="28" x2="328" y2="332" gradientUnits="userSpaceOnUse"><stop offset="0" stop-color="#DBEAFF"/><stop offset="0.5" stop-color="#6CA7FF"/><stop offset="1" stop-color="#0B5FFF"/></linearGradient><linearGradient id="lens" x1="142" y1="150" x2="260" y2="282" gradientUnits="userSpaceOnUse"><stop offset="0" stop-color="#8DBBFF"/><stop offset="0.42" stop-color="#1478FF"/><stop offset="1" stop-color="#002D92"/></linearGradient><radialGradient id="gloss" cx="0" cy="0" r="1" gradientUnits="userSpaceOnUse" gradientTransform="translate(185 180) rotate(58) scale(112 84)"><stop stop-color="#fff" stop-opacity="0.9"/><stop offset="0.24" stop-color="#fff" stop-opacity="0.22"/><stop offset="1" stop-color="#fff" stop-opacity="0"/></radialGradient><filter id="shadow" x="-20%" y="-20%" width="140%" height="150%"><feDropShadow dx="0" dy="18" stdDeviation="18" flood-color="#061326" flood-opacity="0.28"/></filter></defs><g filter="url(#shadow)"><path d="M138 88V68c0-24 20-44 44-44h78c24 0 44 20 44 44v20h18c35 0 64 29 64 64v166c0 35-29 64-64 64H78c-35 0-64-29-64-64V152c0-35 29-64 64-64h60Zm42 0h82V70c0-7-6-13-13-13h-56c-7 0-13 6-13 13v18Z" fill="url(#body)"/><path d="M18 223c36 18 95 28 181 28s145-10 183-29" fill="none" stroke="#EAF2FF" stroke-width="5" stroke-linecap="round" opacity=".92"/><circle cx="200" cy="235" r="88" fill="#EAF2FF"/><circle cx="200" cy="235" r="73" fill="#071326"/><circle cx="200" cy="235" r="58" fill="url(#lens)"/><circle cx="200" cy="235" r="38" fill="#031129" opacity=".78"/><circle cx="178" cy="206" r="15" fill="#fff" opacity=".78"/><circle cx="286" cy="136" r="16" fill="#0C7BFF" stroke="#82B9FF" stroke-width="3"/><path d="M42 146c7-18 21-29 42-33h213c26 0 46 13 59 38" fill="url(#gloss)" opacity=".9"/></g></svg>