<svg xmlns="http://www.w3.org/2000/svg" width="900" height="900" viewBox="0 0 900 900" role="img" aria-label="PhotoBrief" fill="none"><g transform="translate(194 72)"><g stroke="#F7F3EA" stroke-width="26" stroke-linecap="round" stroke-linejoin="round"><path d="M158 170h196c28 0 50 22 50 50v118c0 28-22 50-50 50H158c-28 0-50-22-50-50V220c0-28 22-50 50-50Z"/><path d="M206 170v-26c0-18 15-33 33-33h34c18 0 33 15 33 33v26"/><circle cx="256" cy="281" r="60"/><circle cx="256" cy="281" r="22"/></g><path d="M344 226h28" stroke="#7BDFF2" stroke-width="26" stroke-linecap="round"/></g><text x="450" y="680" text-anchor="middle" font-family="Inter, ui-sans-serif, system-ui, -apple-system, BlinkMacSystemFont, Segoe UI, sans-serif" font-size="112" font-weight="720" letter-spacing="-6" fill="#F7F3EA">PhotoBrief</text></svg>
