<svg xmlns="http://www.w3.org/2000/svg" width="512" height="512" viewBox="0 0 512 512" role="img" aria-label="PhotoBrief mark" fill="none">
  <g stroke="#F8FAFF" stroke-width="24" stroke-linecap="round" stroke-linejoin="round">
    <path d="M74 150v-48c0-15 13-28 28-28h48"/>
    <path d="M362 74h48c15 0 28 13 28 28v48"/>
    <path d="M74 362v48c0 15 13 28 28 28h48"/>
    <path d="M362 438h48c15 0 28-13 28-28v-48"/>
    <circle cx="256" cy="256" r="148"/>
    <path d="M176 186a116 116 0 0 1 70-30"/>
    <path d="M154 238a104 104 0 0 1 35-47"/>
    <path d="M144 284a116 116 0 0 0 10 52"/>
    <path d="M222 158a96 96 0 0 1 94 56"/>
    <path d="M197 206a78 78 0 0 1 96 24"/>
    <path d="M258 329a76 76 0 0 0 75-57"/>
    <circle cx="248" cy="262" r="52" fill="#F8FAFF"/>
    <ellipse cx="231" cy="241" rx="16" ry="10" transform="rotate(-33 231 241)" fill="#07090F" stroke="none"/>
    <circle cx="260" cy="268" r="5" fill="#07090F" stroke="none"/>
  </g>
</svg>
