<svg xmlns="http://www.w3.org/2000/svg" width="64" height="64" viewBox="0 0 64 64" role="img" aria-label="PhotoBrief" fill="none"><rect x="4" y="4" width="56" height="56" rx="14" fill="#111317"/><circle cx="49" cy="16" r="2.5" fill="#FFB84D"/><g stroke="#F7F3EA" stroke-width="3.5" stroke-linecap="round" stroke-linejoin="round"><path d="M20 23h24c3.2 0 5.8 2.6 5.8 5.8v14c0 3.2-2.6 5.8-5.8 5.8H20c-3.2 0-5.8-2.6-5.8-5.8v-14c0-3.2 2.6-5.8 5.8-5.8Z"/><path d="M26 23v-3.2c0-2.2 1.8-4 4-4h4c2.2 0 4 1.8 4 4V23"/><circle cx="32" cy="36" r="7.2"/><circle cx="32" cy="36" r="2.6"/></g><path d="M42.6 29.4h3.2" stroke="#7BDFF2" stroke-width="3.5" stroke-linecap="round"/></svg>
