<svg xmlns="http://www.w3.org/2000/svg" viewBox="0 0 923 923" role="img" aria-label="PhotoBrief.ai">
  <style>
    .pb-light { display: none; }
    @media (prefers-color-scheme: dark) {
      .pb-dark { display: none; }
      .pb-light { display: block; }
    }
  </style>
  <path class="pb-dark" d="M6 282L7 705L13 732L26 760L38 777L54 793L69 804L99 817L128 821L789 821L802 820L820 816L848 803L862 793L879 776L891 759L899 743L905 726L910 695L910 282L850 328L665 476L663 480L663 488L668 515L669 548L667 573L662 599L653 628L639 659L626 680L611 699L581 727L552 746L513 762L493 767L469 770L445 770L426 768L403 763L385 757L360 745L334 728L300 696L281 670L266 642L251 597L247 575L245 552L247 511L252 487L251 476L166 407ZM7 232L7 254L12 260L244 445L251 449L261 448L265 444L276 420L294 393L316 369L334 354L361 337L388 325L413 318L440 314L475 314L510 320L539 330L563 342L590 361L613 383L637 415L653 446L658 449L667 449L906 259L909 254L908 226L903 204L893 181L880 162L864 146L842 131L820 122L793 117L114 118L93 123L69 134L51 147L38 160L26 176L18 191L10 214ZM440 334L420 337L401 342L368 356L341 374L326 387L312 402L292 430L276 463L268 488L264 507L261 549L266 589L270 605L279 630L285 643L299 666L312 683L327 699L356 722L394 741L418 748L435 751L465 752L485 750L507 745L542 731L574 710L604 680L623 652L634 630L643 605L651 565L652 530L647 492L640 467L631 445L614 416L599 397L585 383L559 363L526 346L508 340L484 335ZM451 388L475 389L507 397L531 409L550 423L569 443L587 472L596 496L602 528L602 558L595 594L582 625L565 650L554 662L540 674L511 691L490 698L460 702L432 700L404 692L384 682L365 668L348 651L330 625L317 594L310 558L310 529L315 500L323 478L331 462L343 444L361 425L387 406L399 400L422 392ZM487 490L487 499L560 620L566 621L570 617L579 598L585 579L589 553L587 517L579 489L575 485L569 484ZM425 481L426 484L430 486L462 483L566 477L569 473L569 468L553 446L542 435L525 422L506 412L495 408L472 403L464 403L459 406ZM513 556L509 556L507 558L450 677L450 683L455 687L475 686L489 683L506 677L523 668L539 656L557 636L557 630ZM474 608L472 605L345 607L341 611L341 616L358 641L383 664L408 678L426 684L435 685L440 682ZM446 404L436 404L418 408L391 420L367 438L355 451L347 463L347 468L385 530L389 534L391 534L394 531L436 437L449 411L449 408ZM338 481L330 499L324 529L324 561L327 578L333 597L338 600L412 598L415 595L413 589L345 480ZM784 203L795 203L802 206L810 214L813 221L813 235L810 242L801 251L791 254L783 253L777 250L769 242L765 231L766 221L771 211L777 206Z" fill="#171b21" fill-rule="evenodd"/>
  <path class="pb-light" d="M33 259L34 640L41 665L47 678L56 692L73 711L92 725L114 735L138 740L745 740L767 736L783 730L794 724L813 710L826 696L835 683L847 655L852 629L852 259L832 273L631 430L628 435L628 442L633 468L634 496L629 536L615 578L602 602L585 625L552 656L532 669L516 677L483 688L445 693L406 690L386 685L365 677L351 670L331 657L316 645L299 628L287 613L271 587L260 562L253 538L248 506L248 475L251 452L254 442L254 434L252 430ZM35 211L35 234L39 239L134 312L247 402L254 406L262 406L265 404L283 369L299 348L318 329L339 313L377 294L401 287L429 283L456 283L483 287L507 294L538 309L563 327L579 342L602 371L618 402L622 406L631 406L782 287L844 240L849 234L849 213L844 188L836 169L824 151L807 134L793 124L774 115L749 109L136 109L108 116L90 125L75 136L62 149L53 161L43 180L38 195ZM437 306L410 309L393 313L374 320L354 330L339 340L309 368L296 385L287 400L278 419L270 442L265 467L264 505L268 532L279 566L289 586L300 603L324 630L352 651L383 666L399 671L420 675L453 676L483 671L507 663L527 653L545 641L571 617L594 585L608 554L617 518L619 485L615 452L611 436L603 414L592 393L582 378L553 347L531 331L503 317L475 309ZM438 350L459 351L487 358L506 367L526 381L543 398L559 421L566 435L572 452L577 477L577 506L570 538L559 563L547 581L528 601L502 619L478 629L453 634L429 634L401 628L380 619L355 602L339 586L323 563L315 546L310 531L305 502L305 481L310 453L321 425L338 400L357 381L379 366L406 355L425 351ZM413 440L415 442L431 442L538 435L542 432L542 427L526 405L512 392L500 384L476 373L460 369L448 368L444 370L413 437ZM470 447L469 451L529 550L535 559L539 560L544 554L553 533L559 506L559 478L556 461L551 445L547 442L534 442ZM457 545L455 543L340 547L337 549L337 555L348 572L370 594L385 604L398 610L422 616L426 614L457 549ZM492 503L489 503L487 505L436 610L436 615L440 618L457 617L471 614L483 610L499 602L513 592L529 576L531 572L531 567ZM431 369L422 369L405 373L386 381L363 397L353 407L342 422L342 427L379 484L382 484L384 482L433 376L433 371ZM335 436L332 439L327 452L321 483L322 511L329 537L333 540L399 538L401 536L399 529L341 439L338 436ZM737 186L748 186L753 188L758 192L764 202L763 219L754 229L747 232L737 232L730 229L723 222L720 215L720 203L723 196L730 189Z" fill="#ffffff" fill-rule="evenodd" transform="scale(1.048864)"/>
</svg>
