<svg xmlns="http://www.w3.org/2000/svg" width="1200" height="630" viewBox="0 0 1200 630" role="img" aria-label="PhotoBrief"><defs><linearGradient id="bg" x1="0" y1="0" x2="1" y2="1"><stop stop-color="#060507"/><stop offset=".72" stop-color="#15131A"/><stop offset="1" stop-color="#2E1065"/></linearGradient><radialGradient id="g" cx=".2" cy=".12" r=".8"><stop stop-color="#A78BFA" stop-opacity=".36"/><stop offset="1" stop-color="#A78BFA" stop-opacity="0"/></radialGradient></defs><rect width="1200" height="630" fill="url(#bg)"/><rect width="1200" height="630" fill="url(#g)"/><g transform="translate(80 70) scale(.32)"><rect x="40" y="40" width="432" height="432" rx="108" fill="#FAF9FC" opacity=".08"/><g stroke="#FAF9FC" stroke-width="26" stroke-linecap="round" stroke-linejoin="round"><path d="M158 176h196c28 0 50 22 50 50v112c0 28-22 50-50 50H158c-28 0-50-22-50-50V226c0-28 22-50 50-50Z"/><path d="M206 176v-26c0-18 15-33 33-33h34c18 0 33 15 33 33v26"/><circle cx="256" cy="283" r="60"/><circle cx="256" cy="283" r="22"/></g><path d="M344 230h28" stroke="#A78BFA" stroke-width="26" stroke-linecap="round"/><circle cx="390" cy="136" r="18" fill="#7C3AED"/></g><text x="270" y="162" font-family="Inter,Arial,sans-serif" font-size="56" font-weight="720" fill="#FAF9FC" letter-spacing="-2.5">PhotoBrief</text><text x="78" y="316" font-family="Inter,Arial,sans-serif" font-size="74" font-weight="760" fill="#FAF9FC" letter-spacing="-3.2">Customer photos,</text><text x="78" y="398" font-family="Inter,Arial,sans-serif" font-size="74" font-weight="760" fill="#A78BFA" letter-spacing="-3.2">finally organized.</text><text x="82" y="492" font-family="Inter,Arial,sans-serif" font-size="28" fill="#B3ADB7">Guided links, mobile capture, and website intake automation.</text><rect x="828" y="96" width="286" height="416" rx="44" fill="#FAF9FC" opacity=".10" stroke="#FAF9FC" stroke-opacity=".18"/><rect x="864" y="136" width="214" height="58" rx="20" fill="#FAF9FC" opacity=".18"/><rect x="864" y="230" width="214" height="154" rx="28" fill="#FAF9FC" opacity=".13"/><rect x="864" y="416" width="214" height="54" rx="27" fill="#A78BFA" opacity=".92"/></svg>
