<svg xmlns="http://www.w3.org/2000/svg" viewBox="0 0 820 160" role="img" aria-label="PhotoBrief.ai" preserveAspectRatio="xMidYMid meet">
  <style>.pb-light{display:none}@media (prefers-color-scheme:dark){.pb-dark{display:none}.pb-light{display:block}}</style>
  <defs>
    <linearGradient id="pb-wordmark-gradient" x1="0%" y1="0%" x2="100%" y2="100%">
      <stop offset="0%" stop-color="#f3ebff"/>
      <stop offset="28%" stop-color="#d9bbff"/>
      <stop offset="58%" stop-color="#b98cff"/>
      <stop offset="100%" stop-color="#8f63ff"/>
    </linearGradient>
  </defs>
  <g transform="translate(0 36) scale(0.121045)">
    <path class="pb-dark" d="M6 176L7 599L13 626L26 654L38 671L54 687L69 698L99 711L128 715L789 715L802 714L820 710L848 697L862 687L879 670L891 653L899 637L905 620L910 589L910 176L850 222L665 370L663 374L663 382L668 409L669 442L667 467L662 493L653 522L639 553L626 574L611 593L581 621L552 640L513 656L493 661L469 664L445 664L426 662L403 657L385 651L360 639L334 622L300 590L281 564L266 536L251 491L247 469L245 446L247 405L252 381L251 370L166 301ZM7 126L7 148L12 154L244 339L251 343L261 342L265 338L276 314L294 287L316 263L334 248L361 231L388 219L413 212L440 208L475 208L510 214L539 224L563 236L590 255L613 277L637 309L653 340L658 343L667 343L906 153L909 148L908 120L903 98L893 75L880 56L864 40L842 25L820 16L793 11L114 12L93 17L69 28L51 41L38 54L26 70L18 85L10 108ZM440 228L420 231L401 236L368 250L341 268L326 281L312 296L292 324L276 357L268 382L264 401L261 443L266 483L270 499L279 524L285 537L299 560L312 577L327 593L356 616L394 635L418 642L435 645L465 646L485 644L507 639L542 625L574 604L604 574L623 546L634 524L643 499L651 459L652 424L647 386L640 361L631 339L614 310L599 291L585 277L559 257L526 240L508 234L484 229ZM451 282L475 283L507 291L531 303L550 317L569 337L587 366L596 390L602 422L602 452L595 488L582 519L565 544L554 556L540 568L511 585L490 592L460 596L432 594L404 586L384 576L365 562L348 545L330 519L317 488L310 452L310 423L315 394L323 372L331 356L343 338L361 319L387 300L399 294L422 286ZM487 384L487 393L560 514L566 515L570 511L579 492L585 473L589 447L587 411L579 383L575 379L569 378ZM425 375L426 378L430 380L462 377L566 371L569 367L569 362L553 340L542 329L525 316L506 306L495 302L472 297L464 297L459 300ZM513 450L509 450L507 452L450 571L450 577L455 581L475 580L489 577L506 571L523 562L539 550L557 530L557 524ZM474 502L472 499L345 501L341 505L341 510L358 535L383 558L408 572L426 578L435 579L440 576ZM446 298L436 298L418 302L391 314L367 332L355 345L347 357L347 362L385 424L389 428L391 428L394 425L436 331L449 305L449 302ZM338 375L330 393L324 423L324 455L327 472L333 491L338 494L412 492L415 489L413 483L345 374ZM784 97L795 97L802 100L810 108L813 115L813 129L810 136L801 145L791 148L783 147L777 144L769 136L765 125L766 115L771 105L777 100Z" fill="#171b21" fill-rule="evenodd"/>
    <path class="pb-light" d="M11 161L12 542L19 567L25 580L34 594L51 613L70 627L92 637L116 642L723 642L745 638L761 632L772 626L791 612L804 598L813 585L825 557L830 531L830 161L810 175L609 332L606 337L606 344L611 370L612 398L607 438L593 480L580 504L563 527L530 558L510 571L494 579L461 590L423 595L384 592L364 587L343 579L329 572L309 559L294 547L277 530L265 515L249 489L238 464L231 440L226 408L226 377L229 354L232 344L232 336L230 332ZM13 113L13 136L17 141L112 214L225 304L232 308L240 308L243 306L261 271L277 250L296 231L317 215L355 196L379 189L407 185L434 185L461 189L485 196L516 211L541 229L557 244L580 273L596 304L600 308L609 308L760 189L822 142L827 136L827 115L822 90L814 71L802 53L785 36L771 26L752 17L727 11L114 11L86 18L68 27L53 38L40 51L31 63L21 82L16 97ZM415 208L388 211L371 215L352 222L332 232L317 242L287 270L274 287L265 302L256 321L248 344L243 369L242 407L246 434L257 468L267 488L278 505L302 532L330 553L361 568L377 573L398 577L431 578L461 573L485 565L505 555L523 543L549 519L572 487L586 456L595 420L597 387L593 354L589 338L581 316L570 295L560 280L531 249L509 233L481 219L453 211ZM416 252L437 253L465 260L484 269L504 283L521 300L537 323L544 337L550 354L555 379L555 408L548 440L537 465L525 483L506 503L480 521L456 531L431 536L407 536L379 530L358 521L333 504L317 488L301 465L293 448L288 433L283 404L283 383L288 355L299 327L316 302L335 283L357 268L384 257L403 253ZM391 342L393 344L409 344L516 337L520 334L520 329L504 307L490 294L478 286L454 275L438 271L426 270L422 272L391 339ZM448 349L447 353L507 452L513 461L517 462L522 456L531 435L537 408L537 380L534 363L529 347L525 344L512 344ZM435 447L433 445L318 449L315 451L315 457L326 474L348 496L363 506L376 512L400 518L404 516L435 451ZM470 405L467 405L465 407L414 512L414 517L418 520L435 519L449 516L461 512L477 504L491 494L507 478L509 474L509 469ZM409 271L400 271L383 275L364 283L341 299L331 309L320 324L320 329L357 386L360 386L362 384L411 278L411 273ZM313 338L310 341L305 354L299 385L300 413L307 439L311 442L377 440L379 438L377 431L319 341L316 338ZM715 88L726 88L731 90L736 94L742 104L741 121L732 131L725 134L715 134L708 131L701 124L698 117L698 105L701 98L708 91Z" fill="#fff" fill-rule="evenodd" transform="translate(0 5.431) scale(1.095012)"/>
  </g>
  <text x="139.6" y="100" fill="url(#pb-wordmark-gradient)" font-family="Inter, ui-sans-serif, system-ui, -apple-system, BlinkMacSystemFont, 'Segoe UI', sans-serif" font-size="78" font-weight="700" letter-spacing="-4.5">PhotoBrief.ai</text>
</svg>
