<svg xmlns="http://www.w3.org/2000/svg" width="1024" height="1024" viewBox="0 0 512 512" role="img" aria-label="PhotoBrief" fill="none"><rect x="40" y="40" width="432" height="432" rx="108" fill="#111317"/><circle cx="390" cy="136" r="18" fill="#FFB84D"/><g stroke="#F7F3EA" stroke-width="26" stroke-linecap="round" stroke-linejoin="round"><path d="M158 176h196c28 0 50 22 50 50v112c0 28-22 50-50 50H158c-28 0-50-22-50-50V226c0-28 22-50 50-50Z"/><path d="M206 176v-26c0-18 15-33 33-33h34c18 0 33 15 33 33v26"/><circle cx="256" cy="283" r="60"/><circle cx="256" cy="283" r="22"/></g><path d="M344 230h28" stroke="#7BDFF2" stroke-width="26" stroke-linecap="round"/></svg>