<svg xmlns="http://www.w3.org/2000/svg" viewBox="0 0 842 654" role="img" aria-label="PhotoBrief.ai mark"><path d="M11 161L12 542L19 567L25 580L34 594L51 613L70 627L92 637L116 642L723 642L745 638L761 632L772 626L791 612L804 598L813 585L825 557L830 531L830 161L810 175L609 332L606 337L606 344L611 370L612 398L607 438L593 480L580 504L563 527L530 558L510 571L494 579L461 590L423 595L384 592L364 587L343 579L329 572L309 559L294 547L277 530L265 515L249 489L238 464L231 440L226 408L226 377L229 354L232 344L232 336L230 332ZM13 113L13 136L17 141L112 214L225 304L232 308L240 308L243 306L261 271L277 250L296 231L317 215L355 196L379 189L407 185L434 185L461 189L485 196L516 211L541 229L557 244L580 273L596 304L600 308L609 308L760 189L822 142L827 136L827 115L822 90L814 71L802 53L785 36L771 26L752 17L727 11L114 11L86 18L68 27L53 38L40 51L31 63L21 82L16 97ZM415 208L388 211L371 215L352 222L332 232L317 242L287 270L274 287L265 302L256 321L248 344L243 369L242 407L246 434L257 468L267 488L278 505L302 532L330 553L361 568L377 573L398 577L431 578L461 573L485 565L505 555L523 543L549 519L572 487L586 456L595 420L597 387L593 354L589 338L581 316L570 295L560 280L531 249L509 233L481 219L453 211ZM416 252L437 253L465 260L484 269L504 283L521 300L537 323L544 337L550 354L555 379L555 408L548 440L537 465L525 483L506 503L480 521L456 531L431 536L407 536L379 530L358 521L333 504L317 488L301 465L293 448L288 433L283 404L283 383L288 355L299 327L316 302L335 283L357 268L384 257L403 253ZM391 342L393 344L409 344L516 337L520 334L520 329L504 307L490 294L478 286L454 275L438 271L426 270L422 272L391 339ZM448 349L447 353L507 452L513 461L517 462L522 456L531 435L537 408L537 380L534 363L529 347L525 344L512 344ZM435 447L433 445L318 449L315 451L315 457L326 474L348 496L363 506L376 512L400 518L404 516L435 451ZM470 405L467 405L465 407L414 512L414 517L418 520L435 519L449 516L461 512L477 504L491 494L507 478L509 474L509 469ZM409 271L400 271L383 275L364 283L341 299L331 309L320 324L320 329L357 386L360 386L362 384L411 278L411 273ZM313 338L310 341L305 354L299 385L300 413L307 439L311 442L377 440L379 438L377 431L319 341L316 338ZM715 88L726 88L731 90L736 94L742 104L741 121L732 131L725 134L715 134L708 131L701 124L698 117L698 105L701 98L708 91Z" fill="#ffffff" fill-rule="evenodd"/></svg>
