<svg xmlns="http://www.w3.org/2000/svg" viewBox="0 0 922 727" role="img" aria-label="PhotoBrief.ai mark"><path d="M6 176L7 599L13 626L26 654L38 671L54 687L69 698L99 711L128 715L789 715L802 714L820 710L848 697L862 687L879 670L891 653L899 637L905 620L910 589L910 176L850 222L665 370L663 374L663 382L668 409L669 442L667 467L662 493L653 522L639 553L626 574L611 593L581 621L552 640L513 656L493 661L469 664L445 664L426 662L403 657L385 651L360 639L334 622L300 590L281 564L266 536L251 491L247 469L245 446L247 405L252 381L251 370L166 301ZM7 126L7 148L12 154L244 339L251 343L261 342L265 338L276 314L294 287L316 263L334 248L361 231L388 219L413 212L440 208L475 208L510 214L539 224L563 236L590 255L613 277L637 309L653 340L658 343L667 343L906 153L909 148L908 120L903 98L893 75L880 56L864 40L842 25L820 16L793 11L114 12L93 17L69 28L51 41L38 54L26 70L18 85L10 108ZM440 228L420 231L401 236L368 250L341 268L326 281L312 296L292 324L276 357L268 382L264 401L261 443L266 483L270 499L279 524L285 537L299 560L312 577L327 593L356 616L394 635L418 642L435 645L465 646L485 644L507 639L542 625L574 604L604 574L623 546L634 524L643 499L651 459L652 424L647 386L640 361L631 339L614 310L599 291L585 277L559 257L526 240L508 234L484 229ZM451 282L475 283L507 291L531 303L550 317L569 337L587 366L596 390L602 422L602 452L595 488L582 519L565 544L554 556L540 568L511 585L490 592L460 596L432 594L404 586L384 576L365 562L348 545L330 519L317 488L310 452L310 423L315 394L323 372L331 356L343 338L361 319L387 300L399 294L422 286ZM487 384L487 393L560 514L566 515L570 511L579 492L585 473L589 447L587 411L579 383L575 379L569 378ZM425 375L426 378L430 380L462 377L566 371L569 367L569 362L553 340L542 329L525 316L506 306L495 302L472 297L464 297L459 300ZM513 450L509 450L507 452L450 571L450 577L455 581L475 580L489 577L506 571L523 562L539 550L557 530L557 524ZM474 502L472 499L345 501L341 505L341 510L358 535L383 558L408 572L426 578L435 579L440 576ZM446 298L436 298L418 302L391 314L367 332L355 345L347 357L347 362L385 424L389 428L391 428L394 425L436 331L449 305L449 302ZM338 375L330 393L324 423L324 455L327 472L333 491L338 494L412 492L415 489L413 483L345 374ZM784 97L795 97L802 100L810 108L813 115L813 129L810 136L801 145L791 148L783 147L777 144L769 136L765 125L766 115L771 105L777 100Z" fill="#171b21" fill-rule="evenodd"/></svg>
