<svg xmlns="http://www.w3.org/2000/svg" width="1200" height="320" viewBox="0 0 1200 320" role="img" aria-label="PhotoBrief"><defs><linearGradient id="body" x1="42" y1="28" x2="278" y2="280"><stop stop-color="#DBEAFF"/><stop offset=".52" stop-color="#6CA7FF"/><stop offset="1" stop-color="#0B5FFF"/></linearGradient><linearGradient id="lens" x1="116" y1="128" x2="222" y2="250"><stop stop-color="#8DBBFF"/><stop offset=".45" stop-color="#1478FF"/><stop offset="1" stop-color="#0032A0"/></linearGradient><filter id="shadow" x="-20%" y="-20%" width="140%" height="150%"><feDropShadow dx="0" dy="14" stdDeviation="16" flood-color="#061326" flood-opacity=".24"/></filter></defs><g filter="url(#shadow)"><path d="M104 82V66c0-22 18-40 40-40h66c22 0 40 18 40 40v16h18c31 0 56 25 56 56v128c0 31-25 56-56 56H56c-31 0-56-25-56-56V138c0-31 25-56 56-56h48Zm38 0h70V68c0-7-5-12-12-12h-46c-7 0-12 5-12 12v14Z" fill="url(#body)" transform="translate(24 0)"/><path d="M48 190c36 16 89 24 159 24s122-8 157-24" fill="none" stroke="#EAF2FF" stroke-width="5" stroke-linecap="round" opacity=".9"/><circle cx="208" cy="210" r="72" fill="#EAF2FF"/><circle cx="208" cy="210" r="59" fill="#071326"/><circle cx="208" cy="210" r="46" fill="url(#lens)"/><circle cx="190" cy="188" r="12" fill="#fff" opacity=".78"/><circle cx="278" cy="125" r="13" fill="#0C7BFF" stroke="#82B9FF" stroke-width="3"/></g><text x="390" y="190" font-family="Inter, ui-sans-serif, system-ui, -apple-system, BlinkMacSystemFont, Segoe UI, sans-serif" font-size="118" font-weight="760" letter-spacing="-6"><tspan fill="#fff">Photo</tspan><tspan fill="#8DBBFF">Brief</tspan></text></svg>