<svg xmlns="http://www.w3.org/2000/svg" width="720" height="1280" viewBox="0 0 720 1280" role="img" aria-label="Mobile customer capture screen"><defs><linearGradient id="bg" x1="0" y1="0" x2="1" y2="1"><stop stop-color="#F8FBFF"/><stop offset="1" stop-color="#EAF2FF"/></linearGradient><linearGradient id="blue" x1="0" y1="0" x2="1" y2="1"><stop stop-color="#3A8BFF"/><stop offset="1" stop-color="#005CFF"/></linearGradient></defs><rect width="720" height="1280" rx="72" fill="#081B3A"/><rect x="42" y="42" width="636" height="1196" rx="56" fill="url(#bg)"/><rect x="86" y="86" width="548" height="80" rx="28" fill="#fff" stroke="#DCE8FA"/><text x="118" y="137" font-family="Inter,Arial,sans-serif" font-size="26" font-weight="650" fill="#071A35">2 of 4 photos</text><rect x="86" y="220" width="548" height="560" rx="42" fill="#fff" stroke="#DCE8FA"/><rect x="126" y="270" width="468" height="300" rx="34" fill="#DDEBFF"/><circle cx="360" cy="420" r="88" fill="url(#blue)" opacity=".24"/><path d="M290 420h140M360 350v140" stroke="#0B67FF" stroke-width="16" stroke-linecap="round"/><text x="360" y="642" font-size="38" font-family="Inter,Arial,sans-serif" font-weight="760" fill="#071A35" text-anchor="middle">Main pile close-up</text><text x="360" y="690" font-size="24" font-family="Inter,Arial,sans-serif" fill="#5D6B82" text-anchor="middle">Stand back enough to show</text><text x="360" y="722" font-size="24" font-family="Inter,Arial,sans-serif" fill="#5D6B82" text-anchor="middle">the full amount.</text><rect x="86" y="850" width="548" height="86" rx="28" fill="url(#blue)"/><text x="360" y="906" font-size="30" font-family="Inter,Arial,sans-serif" font-weight="760" fill="#fff" text-anchor="middle">Take photo</text><rect x="166" y="968" width="388" height="70" rx="24" fill="#fff" stroke="#DCE8FA"/><text x="360" y="1014" font-size="24" font-family="Inter,Arial,sans-serif" font-weight="650" fill="#071A35" text-anchor="middle">Choose from library</text></svg>