<svg xmlns="http://www.w3.org/2000/svg" width="720" height="1280" viewBox="0 0 720 1280" role="img" aria-label="Review and send screen"><defs><linearGradient id="bg" x1="0" y1="0" x2="1" y2="1"><stop stop-color="#F8FBFF"/><stop offset="1" stop-color="#EAF2FF"/></linearGradient><linearGradient id="blue" x1="0" y1="0" x2="1" y2="1"><stop stop-color="#3A8BFF"/><stop offset="1" stop-color="#005CFF"/></linearGradient></defs><rect width="720" height="1280" rx="72" fill="#081B3A"/><rect x="42" y="42" width="636" height="1196" rx="56" fill="url(#bg)"/><text x="96" y="136" font-size="38" font-family="Inter,Arial,sans-serif" font-weight="760" fill="#071A35">Review photos</text><text x="96" y="178" font-size="24" font-family="Inter,Arial,sans-serif" fill="#5D6B82">Check everything once before sending.</text><g transform="translate(92 232)"><rect width="250" height="250" rx="34" fill="#DDEBFF"/><circle cx="125" cy="125" r="58" fill="#0B67FF" opacity=".24"/><path d="M95 128l24 24 48-62" fill="none" stroke="#0B67FF" stroke-width="14" stroke-linecap="round"/></g><g transform="translate(378 232)"><rect width="250" height="250" rx="34" fill="#DDEBFF"/><circle cx="125" cy="125" r="58" fill="#0B67FF" opacity=".24"/><path d="M95 128l24 24 48-62" fill="none" stroke="#0B67FF" stroke-width="14" stroke-linecap="round"/></g><g transform="translate(92 520)"><rect width="250" height="250" rx="34" fill="#DDEBFF"/><circle cx="125" cy="125" r="58" fill="#0B67FF" opacity=".24"/><path d="M95 128l24 24 48-62" fill="none" stroke="#0B67FF" stroke-width="14" stroke-linecap="round"/></g><g transform="translate(378 520)"><rect width="250" height="250" rx="34" fill="#DDEBFF"/><circle cx="125" cy="125" r="58" fill="#0B67FF" opacity=".24"/><path d="M95 128l24 24 48-62" fill="none" stroke="#0B67FF" stroke-width="14" stroke-linecap="round"/></g><rect x="92" y="845" width="536" height="120" rx="34" fill="#fff" stroke="#DCE8FA"/><text x="126" y="904" font-family="Inter,Arial,sans-serif" font-size="26" font-weight="700" fill="#071A35">2 short answers included</text><rect x="92" y="1038" width="536" height="86" rx="28" fill="url(#blue)"/><text x="360" y="1094" font-size="30" font-family="Inter,Arial,sans-serif" font-weight="760" fill="#fff" text-anchor="middle">Send brief</text></svg>