<svg xmlns="http://www.w3.org/2000/svg" width="1280" height="800" viewBox="0 0 1280 800" role="img" aria-label="Create request page walkthrough"><defs><linearGradient id="bg" x1="0" y1="0" x2="1" y2="1"><stop stop-color="#F8FBFF"/><stop offset="1" stop-color="#EAF2FF"/></linearGradient><linearGradient id="blue" x1="0" y1="0" x2="1" y2="1"><stop stop-color="#3A8BFF"/><stop offset="1" stop-color="#005CFF"/></linearGradient></defs><rect width="1280" height="800" rx="44" fill="url(#bg)"/><rect x="70" y="70" width="1140" height="660" rx="42" fill="#fff" stroke="#DCE8FA"/><rect x="110" y="125" width="490" height="540" rx="30" fill="#F7FAFF" stroke="#DCE8FA"/><rect x="680" y="125" width="490" height="540" rx="30" fill="#fff" stroke="#DCE8FA"/><text x="145" y="185" font-family="Inter,Arial,sans-serif" font-size="34" font-weight="700" fill="#071A35">Build with AI</text><text x="145" y="225" font-family="Inter,Arial,sans-serif" font-size="20" fill="#5D6B82">A few simple setup questions.</text><rect x="145" y="270" width="380" height="60" rx="18" fill="#fff" stroke="#DCE8FA"/><text x="170" y="308" font-family="Inter,Arial,sans-serif" font-size="21" font-weight="650" fill="#071A35">Service quote request</text><rect x="145" y="365" width="132" height="58" rx="29" fill="url(#blue)"/><text x="211" y="402" font-size="27" font-family="Inter,Arial,sans-serif" font-weight="700" fill="#fff" text-anchor="middle">3</text><text x="298" y="402" font-family="Inter,Arial,sans-serif" font-size="22" font-weight="650" fill="#071A35">photos</text><rect x="145" y="465" width="380" height="96" rx="22" fill="#fff" stroke="#DCE8FA"/><text x="170" y="504" font-family="Inter,Arial,sans-serif" font-size="18" font-weight="700" fill="#5D6B82">Must include</text><text x="170" y="536" font-family="Inter,Arial,sans-serif" font-size="20" fill="#071A35">Full area and close-up</text><rect x="145" y="595" width="380" height="64" rx="22" fill="url(#blue)"/><text x="335" y="636" font-size="22" font-family="Inter,Arial,sans-serif" font-weight="760" fill="#fff" text-anchor="middle">Build request</text><text x="715" y="185" font-family="Inter,Arial,sans-serif" font-size="34" font-weight="700" fill="#071A35">Ready to edit</text><rect x="715" y="235" width="390" height="62" rx="20" fill="#F7FAFF" stroke="#DCE8FA"/><text x="742" y="274" font-family="Inter,Arial,sans-serif" font-size="21" font-weight="650" fill="#071A35">Customer info</text><text x="715" y="360" font-family="Inter,Arial,sans-serif" font-size="26" font-weight="700" fill="#071A35">Photos to collect</text><rect x="715" y="395" width="390" height="74" rx="22" fill="#F7FAFF" stroke="#DCE8FA"/><text x="742" y="441" font-family="Inter,Arial,sans-serif" font-size="20" fill="#071A35">1. Wide photo</text><rect x="715" y="490" width="390" height="74" rx="22" fill="#F7FAFF" stroke="#DCE8FA"/><text x="742" y="536" font-family="Inter,Arial,sans-serif" font-size="20" fill="#071A35">2. Close-up</text><rect x="715" y="595" width="390" height="64" rx="22" fill="url(#blue)"/><text x="910" y="636" font-size="22" font-family="Inter,Arial,sans-serif" font-weight="760" fill="#fff" text-anchor="middle">Create request</text></svg>