<svg xmlns="http://www.w3.org/2000/svg" width="1280" height="800" viewBox="0 0 1280 800" role="img" aria-label="Website Intake setup walkthrough"><defs><linearGradient id="bg" x1="0" y1="0" x2="1" y2="1"><stop stop-color="#F8FBFF"/><stop offset="1" stop-color="#EAF2FF"/></linearGradient><linearGradient id="blue" x1="0" y1="0" x2="1" y2="1"><stop stop-color="#3A8BFF"/><stop offset="1" stop-color="#005CFF"/></linearGradient></defs><rect width="1280" height="800" rx="44" fill="url(#bg)"/><rect x="64" y="64" width="1152" height="672" rx="42" fill="#fff" stroke="#DCE8FA"/><text x="104" y="130" font-family="Inter,Arial,sans-serif" font-size="42" font-weight="760" fill="#071A35">Website Intake</text><text x="104" y="174" font-family="Inter,Arial,sans-serif" font-size="22" fill="#5D6B82">Turn website inquiries into photo-ready requests.</text><rect x="104" y="230" width="500" height="130" rx="30" fill="#F7FAFF" stroke="#DCE8FA"/><text x="134" y="280" font-family="Inter,Arial,sans-serif" font-size="24" font-weight="700" fill="#071A35">Hosted intake link</text><text x="134" y="318" font-family="Inter,Arial,sans-serif" font-size="22" font-weight="650" fill="#0B67FF">/i/your-public-token</text><rect x="104" y="392" width="500" height="180" rx="30" fill="#F7FAFF" stroke="#DCE8FA"/><text x="134" y="442" font-family="Inter,Arial,sans-serif" font-size="24" font-weight="700" fill="#071A35">Fallback template</text><rect x="134" y="474" width="410" height="58" rx="18" fill="#fff" stroke="#DCE8FA"/><text x="160" y="512" font-family="Inter,Arial,sans-serif" font-size="21" font-weight="650" fill="#071A35">General service intake</text><rect x="674" y="230" width="500" height="342" rx="30" fill="#F7FAFF" stroke="#DCE8FA"/><text x="704" y="280" font-family="Inter,Arial,sans-serif" font-size="24" font-weight="700" fill="#071A35">Route request types</text><rect x="704" y="320" width="420" height="70" rx="22" fill="#fff" stroke="#DCE8FA"/><text x="730" y="364" font-family="Inter,Arial,sans-serif" font-size="20" font-weight="650" fill="#071A35">Contains repair → Repair intake</text><rect x="704" y="410" width="420" height="70" rx="22" fill="#fff" stroke="#DCE8FA"/><text x="730" y="454" font-family="Inter,Arial,sans-serif" font-size="20" font-weight="650" fill="#071A35">Contains quote → Quote photos</text><rect x="704" y="500" width="420" height="46" rx="23" fill="#EAF3FF"/><text x="736" y="530" font-family="Inter,Arial,sans-serif" font-size="17" font-weight="700" fill="#0B67FF">AI fallback only if confident</text><rect x="104" y="620" width="1070" height="70" rx="26" fill="url(#blue)"/><text x="640" y="664" font-size="24" font-family="Inter,Arial,sans-serif" font-weight="760" fill="#fff" text-anchor="middle">Send test lead</text></svg>